<?xml version="1.0" standalone="no"?>
<!DOCTYPE svg PUBLIC "-//W3C//DTD SVG 20010904//EN" "http://www.w3.org/TR/2001/REC-SVG-20010904/DTD/svg10.dtd">
<svg xmlns="http://www.w3.org/2000/svg" version="1.0" width="1024.000000pt" height="1024.000000pt" viewBox="0 0 1024.000000 1024.000000" preserveAspectRatio="xMidYMid meet">
<metadata>
Created by potrace 1.16, written by Peter Selinger 2001-2019
<meta name="Producer" content="Online-Convert"/></metadata>
<g transform="translate(0.000000,1024.000000) scale(0.100000,-0.100000)" fill="#000000" stroke="none">
<path d="M2300 6694 c-14 -3 -68 -18 -120 -33 -52 -16 -107 -32 -122 -35 -15 -4 -42 -19 -60 -35 -18 -15 -51 -40 -73 -54 -49 -32 -166 -146 -305 -297 -58 -63 -118 -128 -135 -145 -16 -16 -48 -53 -69 -80 -22 -28 -65 -78 -95 -112 -31 -33 -74 -83 -96 -109 -22 -26 -60 -68 -85 -94 -25 -26 -61 -73 -80 -106 -59 -101 -108 -161 -173 -215 -34 -28 -80 -75 -102 -104 -22 -30 -65 -87 -95 -127 -51 -67 -78 -115 -124 -222 -9 -21 -21 -70 -26 -110 -6 -39 -14 -97 -18 -130 -5 -34 -5 -78 0 -105 30 -145 38 -182 53 -236 10 -33 30 -75 46 -93 16 -18 29 -39 29 -46 0 -16 173 -196 188 -196 6 0 23 -11 39 -23 27 -23 161 -70 233 -82 153 -24 183 -24 275 2 127 36 249 91 298 133 23 21 57 45 75 54 20 10 44 37 63 72 17 30 47 67 66 81 19 15 48 47 65 72 18 25 59 75 92 111 34 37 88 101 121 144 101 132 156 198 262 317 56 63 131 155 168 204 37 50 92 118 124 152 87 95 155 173 199 230 50 63 122 195 133 243 4 19 13 55 20 80 19 71 17 245 -4 315 -43 147 -111 259 -222 367 -102 99 -174 135 -385 190 -87 23 -125 28 -160 22z m-829 -1249 c557 -458 699 -577 699 -587 0 -6 -12 -27 -27 -47 -55 -73 -493 -587 -530 -623 -141 -136 -371 -188 -549 -126 -137 48 -249 146 -318 277 -48 92 -67 175 -68 295 0 172 38 286 145 432 68 94 449 535 458 532 4 -2 89 -70 190 -153z"/>
</g>
</svg>
