<?xml version="1.0" encoding="UTF-8"?>
<svg version="1.1" xmlns="http://www.w3.org/2000/svg" width="1024" height="1024">
<path d="M0 0 C337.92 0 675.84 0 1024 0 C1024 337.92 1024 675.84 1024 1024 C686.08 1024 348.16 1024 0 1024 C0 686.08 0 348.16 0 0 Z " fill="#FEFEFE" transform="translate(0,0)"/>
<path d="M0 0 C0.78503906 0.64195312 1.57007813 1.28390625 2.37890625 1.9453125 C3.41724609 2.72261719 3.41724609 2.72261719 4.4765625 3.515625 C17.72447469 13.99806844 25.7732362 30.80052124 29.37890625 46.9453125 C29.60578125 47.9146875 29.83265625 48.8840625 30.06640625 49.8828125 C31.65939869 65.49413845 28.86554861 80.69821584 22.37890625 94.9453125 C22.04503906 95.70714844 21.71117187 96.46898437 21.3671875 97.25390625 C17.82218121 104.43616805 12.2104732 110.20502012 6.94873047 116.15771484 C4.53283209 118.90875807 2.17414557 121.70693386 -0.18359375 124.5078125 C-1.08838122 125.57956255 -1.9933291 126.65117721 -2.8984375 127.72265625 C-3.34558105 128.2522998 -3.79272461 128.78194336 -4.25341797 129.32763672 C-5.64568792 130.97440229 -7.04114848 132.61841317 -8.4375 134.26171875 C-12.68849434 139.26765902 -16.91673667 144.2857163 -21.05859375 149.3828125 C-25.01552793 154.24580674 -29.08545317 159.00231453 -33.17724609 163.75146484 C-36.97510876 168.16839968 -40.67789416 172.65485247 -44.3515625 177.17578125 C-48.24695845 181.92937115 -52.23453893 186.60474384 -56.21386719 191.28808594 C-58.52004795 194.00396988 -60.82038043 196.7247969 -63.12109375 199.4453125 C-65.89155451 202.72128855 -68.6633522 205.99608385 -71.44140625 209.265625 C-75.7583318 214.35048681 -80.04701094 219.44956966 -84.24609375 224.6328125 C-87.86712552 229.08150867 -91.63287571 233.36582151 -95.5 237.6015625 C-97.43940878 239.74455562 -99.31438674 241.92875888 -101.18359375 244.1328125 C-112.1310361 256.57990448 -128.41218382 266.67592608 -145.36328125 267.88671875 C-146.48089844 267.91572266 -146.48089844 267.91572266 -147.62109375 267.9453125 C-148.77867187 267.99558594 -149.93625 268.04585937 -151.12890625 268.09765625 C-170.79802882 268.70558012 -188.90405564 263.35725477 -203.62109375 249.9453125 C-204.42804688 249.22988281 -205.235 248.51445313 -206.06640625 247.77734375 C-216.45897071 238.03630091 -223.3780006 226.52321058 -227.62109375 212.9453125 C-227.93949219 211.9553125 -228.25789063 210.9653125 -228.5859375 209.9453125 C-234.59762926 188.22565194 -229.75285811 166.49516821 -219.1015625 147.19140625 C-214.96017614 140.26894292 -209.83634456 134.32839096 -204.53515625 128.2890625 C-202.128862 125.54697027 -199.81874454 122.74753038 -197.55859375 119.8828125 C-187.93728273 107.72226889 -177.63205624 96.08162405 -167.51171875 84.3359375 C-162.92273465 79.00410616 -158.36231541 73.66201579 -153.93359375 68.1953125 C-150.38364054 63.82023503 -146.66545554 59.63982058 -142.87109375 55.4765625 C-140.54247322 52.8568644 -138.32546428 50.1701594 -136.12109375 47.4453125 C-133.21295995 43.850536 -130.23568043 40.36270622 -127.12109375 36.9453125 C-124.09826954 33.62541764 -121.19597214 30.24767138 -118.37109375 26.7578125 C-88.52696688 -9.98548205 -42.90496666 -33.63340158 0 0 Z " fill="#0640A0" transform="translate(280.62109375,369.0546875)"/>
<path d="M0 0 C3.94565602 1.6583192 6.93412075 4.34717955 10.125 7.125 C11.29076648 8.12604926 12.45744121 9.12604175 13.625 10.125 C14.19863281 10.61613281 14.77226562 11.10726563 15.36328125 11.61328125 C18.37576062 14.16562057 21.47399415 16.60836175 24.56640625 19.0625 C30.40671651 23.71224942 36.15453566 28.47738157 41.9140625 33.2265625 C43.33853663 34.40104778 44.76301594 35.57552677 46.1875 36.75 C46.91106689 37.34675537 47.63463379 37.94351074 48.38012695 38.55834961 C53.31715082 42.62589872 58.27761634 46.66329909 63.25 50.6875 C69.27794618 55.56906329 75.22845125 60.53229094 81.1328125 65.5625 C84.07253172 68.06166185 87.03226812 70.53422871 90 73 C89.461583 77.25556515 86.85648651 80.08999222 84.25 83.3125 C83.76337891 83.92279053 83.27675781 84.53308105 82.77539062 85.16186523 C77.55342485 91.65540284 72.06773566 97.91749254 66.58007812 104.18603516 C64.11181512 107.01965601 61.67688929 109.88092325 59.25 112.75 C58.79882812 113.28302734 58.34765625 113.81605469 57.8828125 114.36523438 C55.04489148 117.73007933 52.26401836 121.1368815 49.5 124.5625 C37.57609406 139.14799208 25.48763724 152.54819702 6 156 C-11.81077147 157.62996746 -26.20762171 154.79930027 -40.21875 143.15625 C-50.43450094 133.56916065 -58.1491088 119.50857272 -59.19287109 105.39135742 C-60.08468545 74.5534979 -50.1024721 57.16520524 -29.4921875 34.76953125 C-26.36259481 31.291661 -23.43407364 27.67489961 -20.49609375 24.03515625 C-16.9469225 19.71949731 -13.27810372 15.51135004 -9.60424805 11.30175781 C-6.35270078 7.57399654 -3.15240931 3.81208015 0 0 Z " fill="#FDFDFE" transform="translate(127,464)"/>
<path d="M0 0 C-2.85117517 1.90078345 -3.74386269 2.29218545 -6.9453125 2.67578125 C-7.75742187 2.77874512 -8.56953125 2.88170898 -9.40625 2.98779297 C-10.3034375 3.09494629 -11.200625 3.20209961 -12.125 3.3125 C-14.12790561 3.56927412 -16.1304917 3.82854843 -18.1328125 4.08984375 C-19.23012695 4.23276855 -20.32744141 4.37569336 -21.45800781 4.52294922 C-27.98265442 5.40171676 -34.49124198 6.38661037 -41 7.375 C-41.71121002 7.48272736 -42.42242004 7.59045471 -43.15518188 7.70144653 C-52.55709326 9.12869793 -61.93846224 10.6488086 -71.3125 12.25 C-85.99046505 14.74436035 -100.71191634 16.93242083 -115.4375 19.125 C-138.44906806 22.5519587 -161.44763199 26.05532115 -184.4375 29.625 C-185.96048889 29.86136519 -187.4834788 30.09772385 -189.00646973 30.33407593 C-202.45610712 32.42168472 -215.90492111 34.51454205 -229.35203552 36.61834717 C-232.43066954 37.09999022 -235.50939356 37.58105437 -238.58813477 38.06201172 C-242.10981545 38.61216545 -245.63110844 39.1646909 -249.15209961 39.71923828 C-258.55704855 41.19409628 -267.97257274 42.57535994 -277.3984375 43.91015625 C-292.09599007 45.99340783 -306.76752014 48.23171951 -321.4375 50.5 C-323.49479073 50.81724262 -325.55212289 51.13421561 -327.60945702 51.45117664 C-343.53019538 53.90439674 -359.44754917 56.37907387 -375.36284065 58.86737442 C-378.021772 59.2830638 -380.68073527 59.69854843 -383.33970642 60.11398315 C-391.10795559 61.32785478 -398.87606615 62.54256554 -406.64335537 63.76256657 C-409.85830011 64.26717135 -413.07349187 64.77018914 -416.28874016 65.27285576 C-417.781607 65.50662538 -419.27436426 65.74109607 -420.7670002 65.97633553 C-428.1642765 67.14192354 -435.54611392 68.25821479 -443 69 C-441.74979625 62.33220992 -440.22545461 55.80546109 -438.3984375 49.2734375 C-438.1571109 48.39974518 -437.9157843 47.52605286 -437.66714478 46.62588501 C-436.90640773 43.87466009 -436.14079717 41.12482021 -435.375 38.375 C-434.85384168 36.49357958 -434.33300548 34.61206989 -433.8125 32.73046875 C-432.54538249 28.15260709 -431.27389675 23.57597959 -430 19 C-425.26432468 17.84180894 -420.57028205 17.70545326 -415.72187805 17.51356506 C-414.78352133 17.47328625 -413.84516462 17.43300743 -412.87837285 17.39150804 C-409.73066587 17.25734792 -406.58275427 17.12881607 -403.43481445 17.00024414 C-401.17711471 16.90516201 -398.91942969 16.80972992 -396.66175842 16.713974 C-390.51494433 16.45423251 -384.36793804 16.1993213 -378.22089028 15.94517827 C-371.7514805 15.67681307 -365.28226737 15.40379073 -358.81303406 15.13121033 C-347.90874187 14.67234956 -337.00434456 14.21607275 -326.09985352 13.76196289 C-314.9744776 13.29864401 -303.84914116 12.83440254 -292.72387695 12.3684082 C-292.04400655 12.33993178 -291.36413614 12.31145535 -290.6636636 12.282116 C-283.18494902 11.96883458 -275.70624951 11.65519483 -268.22756481 11.34120083 C-267.23044778 11.29933807 -267.23044778 11.29933807 -266.21318698 11.2566296 C-262.88883778 11.11705667 -259.56448954 10.97746097 -256.24014252 10.83783621 C-248.58740435 10.51656005 -240.93460403 10.19682042 -233.28174722 9.87838334 C-210.03123472 8.91036147 -186.78319008 7.91650736 -163.5398376 6.78856671 C-150.34152876 6.14850247 -137.14292515 5.57695333 -123.93722343 5.10888672 C-120.67762007 4.99312922 -117.41815858 4.87384986 -114.15870667 4.75390625 C-104.92945166 4.41479454 -95.70000636 4.08105265 -86.47045898 3.75 C-79.62468824 3.50398872 -72.77907136 3.25403774 -65.93359375 3 C-64.29089067 2.93912201 -64.29089067 2.93912201 -62.61500168 2.87701416 C-47.65125352 2.31668266 -32.70660847 1.61234345 -17.76573181 0.609375 C-11.82638479 0.21083222 -5.95306385 -0.10360394 0 0 Z " fill="#0640A1" transform="translate(937,563)"/>
<path d="M0 0 C6.22557433 -0.04974337 12.45103084 -0.08588128 18.67675781 -0.10986328 C20.79103615 -0.11986979 22.90530083 -0.13347918 25.01953125 -0.15087891 C28.07295114 -0.17536388 31.12618674 -0.18653691 34.1796875 -0.1953125 C35.11239471 -0.20563507 36.04510193 -0.21595764 37.006073 -0.22659302 C46.70819875 -0.22822116 58.34041126 0.80093454 65.82421875 7.67578125 C72.44556945 15.16287756 72.66800637 21.88501082 72.19970703 31.54882812 C70.67024619 50.32118369 64.06289954 67.97874296 50.30078125 81.1796875 C39.90554195 89.40410434 28.82880922 91.33372906 16 91.125 C14.40865234 91.11146484 14.40865234 91.11146484 12.78515625 91.09765625 C10.18986362 91.07427524 7.59505535 91.04150556 5 91 C4.89115479 91.71325439 4.78230957 92.42650879 4.67016602 93.16137695 C3.43596622 100.93224127 1.7994669 108.54482808 -0.0625 116.1875 C-0.33126953 117.31736328 -0.60003906 118.44722656 -0.87695312 119.61132812 C-2.87101314 127.87101314 -2.87101314 127.87101314 -4 129 C-5.99964982 129.08758003 -8.0023611 129.10696576 -10.00390625 129.09765625 C-11.21884766 129.09443359 -12.43378906 129.09121094 -13.68554688 129.08789062 C-14.96494141 129.07951172 -16.24433594 129.07113281 -17.5625 129.0625 C-18.84576172 129.05798828 -20.12902344 129.05347656 -21.45117188 129.04882812 C-24.63416022 129.03699545 -27.81705762 129.02051068 -31 129 C-29.67155034 121.19239955 -28.00687711 113.51280141 -26.12890625 105.8203125 C-25.85061478 104.66959763 -25.5723233 103.51888275 -25.28559875 102.33329773 C-24.38099683 98.59643976 -23.47188023 94.86069775 -22.5625 91.125 C-21.93289497 88.52959179 -21.30349722 85.93413405 -20.67431641 83.33862305 C-19.08875868 76.80076376 -17.49853904 70.26404591 -15.90716553 63.7276001 C-15.04724748 60.19414286 -14.18861093 56.66037745 -13.33056641 53.12646484 C-12.07823798 47.96897515 -10.82396624 42.81196325 -9.56759644 37.65545654 C-9.1127092 35.78824416 -8.65820887 33.92093747 -8.20413208 32.05352783 C-5.59557319 21.33297064 -2.89814783 10.64631892 0 0 Z " fill="#0284EA" transform="translate(542,406)"/>
<path d="M0 0 C1.12591553 0.00523682 2.25183105 0.01047363 3.41186523 0.01586914 C4.62680664 0.0190918 5.84174805 0.02231445 7.09350586 0.02563477 C8.37290039 0.03401367 9.65229492 0.04239258 10.97045898 0.05102539 C12.2537207 0.05553711 13.53698242 0.06004883 14.85913086 0.06469727 C18.04211921 0.07652994 21.22501661 0.09301471 24.40795898 0.11352539 C21.19860935 15.12568059 17.5463204 30.02863538 13.90942383 44.9413147 C12.05884352 52.53464727 10.23816242 60.13511656 8.42944336 67.73852539 C7.37738127 72.14605011 6.30779767 76.54493026 5.15014648 80.92602539 C4.86445801 82.01741821 4.86445801 82.01741821 4.57299805 83.13085938 C4.08122313 84.99324566 3.57727932 86.85240791 3.07202148 88.71118164 C2.15669769 93.40087001 1.38371673 98.21136121 3.72045898 102.55102539 C7.37043101 105.93062912 11.9342127 105.38399204 16.61889648 105.32836914 C21.78220335 104.93063542 25.04789222 103.22055648 29.09545898 99.92602539 C33.88425775 94.10181068 36.07531209 87.61452114 37.77392578 80.35839844 C38.07962997 79.10566383 38.07962997 79.10566383 38.39151001 77.82762146 C39.05586271 75.09561403 39.70655015 72.36054945 40.35717773 69.62524414 C40.81900619 67.71550964 41.28173299 65.80599219 41.74531555 63.89668274 C42.9584113 58.89071977 44.16009422 53.88208808 45.35913086 48.8727417 C46.82118362 42.7735433 48.29625506 36.67748323 49.76982594 30.58105946 C50.91520373 25.84162852 52.05849547 21.1017274 53.19548035 16.36027527 C53.404384 15.49093353 53.61328766 14.6215918 53.82852173 13.72590637 C54.21850067 12.10272164 54.60748407 10.47929728 54.99528503 8.85559082 C55.70687702 5.8976467 56.44532776 3.00141906 57.40795898 0.11352539 C66.31795898 0.11352539 75.22795898 0.11352539 84.40795898 0.11352539 C83.22634176 6.61242015 82.0508155 13.00241274 80.51611328 19.40795898 C80.33853485 20.15921555 80.16095642 20.91047211 79.97799683 21.68449402 C79.39935057 24.12777994 78.81618925 26.56995424 78.23217773 29.01196289 C77.82102689 30.73629695 77.40987887 32.46063168 76.99873352 34.18496704 C76.13949871 37.78443433 75.27751118 41.38323085 74.4140625 44.98168945 C73.31674823 49.55745342 72.23050296 54.13576851 71.14686871 58.71478844 C70.30264528 62.27334918 69.45034244 65.82994065 68.59592628 69.38606644 C68.1923649 71.07159027 67.79170449 72.7578118 67.39420128 74.44477463 C63.21815799 92.14101313 58.24977926 111.80793966 41.74682617 122.1550293 C30.96713364 128.25290134 21.53656827 130.49022178 9.22045898 130.55102539 C8.06481445 130.58389648 6.90916992 130.61676758 5.71850586 130.65063477 C-3.49710067 130.70755317 -11.99980276 129.1199535 -19.12597656 122.90283203 C-25.5992723 116.20280089 -26.80396874 110.13913888 -26.74438477 101.07641602 C-26.50456189 96.41216847 -25.47706339 92.06936824 -24.34204102 87.55102539 C-24.08753174 86.49310791 -23.83302246 85.43519043 -23.57080078 84.34521484 C-22.96141398 81.81673236 -22.34718093 79.28981172 -21.72729492 76.76391602 C-20.36306154 71.19277189 -19.03129942 65.61389658 -17.69750977 60.03540039 C-15.39250495 50.39981513 -13.08153072 40.76569778 -10.75772095 31.1346283 C-9.53733723 26.070754 -8.32895 21.00450423 -7.14331055 15.93237305 C-6.91398331 14.955168 -6.68465607 13.97796295 -6.44837952 12.97114563 C-6.0143628 11.11865907 -5.58326901 9.26548456 -5.15550232 7.4115448 C-3.4514254 0.15116444 -3.4514254 0.15116444 0 0 Z " fill="#0284EA" transform="translate(725.592041015625,405.886474609375)"/>
<path d="M0 0 C10.56 0 21.12 0 32 0 C32 42.57 32 85.14 32 129 C23.09 129 14.18 129 5 129 C5 119 5 119 6 106 C-3.9 106 -13.8 106 -24 106 C-24.99 108.97 -25.98 111.94 -27 115 C-28.18856594 117.56801506 -29.38347734 120.05978318 -30.6875 122.5625 C-31.780625 124.686875 -32.87375 126.81125 -34 129 C-43.24 129 -52.48 129 -62 129 C-60.783125 126.4425 -59.56625 123.885 -58.3125 121.25 C-55.54601938 115.42550497 -52.80436772 109.5905274 -50.10546875 103.734375 C-44.04387438 90.58425801 -37.85382189 77.51136409 -31.5 64.5 C-24.13638121 49.42053657 -17.01753625 34.24378694 -10 19 C-8.44375019 15.62205702 -6.88146663 12.24705279 -5.3125 8.875 C-4.99724365 8.18776855 -4.6819873 7.50053711 -4.35717773 6.79248047 C-3.11358179 4.12638407 -2.09839601 2.09839601 0 0 Z " fill="#0184EB" transform="translate(467,406)"/>
<path d="M0 0 C1.084021 0.00523682 2.16804199 0.01047363 3.28491211 0.01586914 C4.45473633 0.0190918 5.62456055 0.02231445 6.82983398 0.02563477 C8.0615332 0.03401367 9.29323242 0.04239258 10.56225586 0.05102539 C12.41560547 0.05779297 12.41560547 0.05779297 14.30639648 0.06469727 C17.37089703 0.07652931 20.43530307 0.09301366 23.49975586 0.11352539 C20.80355985 12.54763762 17.86691313 24.90366905 14.74975586 37.23852539 C14.33416586 38.89081246 13.91880045 40.54315603 13.50366211 42.19555664 C12.50493043 46.16886468 11.50322387 50.141411 10.49975586 54.11352539 C18.65609853 44.683199 26.45261829 34.99082625 33.82568359 24.93408203 C35.0264816 23.30178543 36.23963307 21.67850604 37.46484375 20.06445312 C40.56032573 15.95607257 43.26458513 12.06957001 45.22558594 7.296875 C47.16372758 4.30433431 49.50831299 2.01178083 52.49975586 0.11352539 C56.09619141 -0.61157227 56.09619141 -0.61157227 60.01147461 -0.67553711 C60.70316742 -0.69182663 61.39486023 -0.70811615 62.10751343 -0.72489929 C69.25069719 -0.83737722 76.38009363 -0.43309596 83.49975586 0.11352539 C80.98652456 4.73352005 78.39008922 8.67710965 74.93725586 12.67602539 C74.04753651 13.72015335 73.15958253 14.76578762 72.27319336 15.81274414 C71.81654297 16.35205566 71.35989258 16.89136719 70.8894043 17.44702148 C68.55419857 20.24746321 66.3070359 23.11543134 64.06225586 25.98852539 C63.60447754 26.5739209 63.14669922 27.15931641 62.67504883 27.76245117 C61.74499341 28.95311757 60.81546928 30.14419915 59.88647461 31.33569336 C58.06852964 33.66637562 56.2464195 35.9937459 54.42041016 38.31811523 C53.51719907 39.47054958 52.61759535 40.62582057 51.72167969 41.78393555 C49.27124009 44.93582173 46.75291203 47.98796481 44.10522461 50.97680664 C43.54569092 51.62593018 42.98615723 52.27505371 42.40966797 52.94384766 C41.33508621 54.18659459 40.23921206 55.41137199 39.11914062 56.61328125 C37.02214893 59.07310063 35.5451809 60.95940547 35.41497803 64.26748657 C36.19911903 70.82834716 37.55277934 77.12884545 39.18725586 83.52758789 C39.44982178 84.58207123 39.7123877 85.63655457 39.98291016 86.72299194 C40.81526323 90.06319515 41.65668616 93.40101234 42.49975586 96.73852539 C43.34199692 100.08337048 44.18209865 103.4286977 45.01660156 106.77548218 C45.53387253 108.84910942 46.05560253 110.92163121 46.58251953 112.99282837 C46.81946533 113.94096405 47.05641113 114.88909973 47.30053711 115.8659668 C47.508479 116.68851959 47.7164209 117.51107239 47.93066406 118.35855103 C48.66357775 121.90658742 49.05038494 125.518558 49.49975586 129.11352539 C39.26975586 129.11352539 29.03975586 129.11352539 18.49975586 129.11352539 C17.81139648 125.81868164 17.81139648 125.81868164 17.10913086 122.45727539 C16.64974036 120.2691321 16.1892965 118.08121285 15.72875977 115.89331055 C15.41549081 114.40232915 15.10327292 112.91112643 14.79223633 111.41967773 C12.60119821 100.91829438 10.17600422 90.50201115 7.49975586 80.11352539 C6.50975586 80.11352539 5.51975586 80.11352539 4.49975586 80.11352539 C4.2072998 81.31364258 3.91484375 82.51375977 3.61352539 83.75024414 C2.52164097 88.23060816 1.42944507 92.71089619 0.3371582 97.19116211 C-0.13428011 99.12506087 -0.60563553 101.05897984 -1.0769043 102.99291992 C-1.75685846 105.78317582 -2.43711713 108.57335733 -3.11743164 111.36352539 C-3.32584686 112.21906006 -3.53426208 113.07459473 -3.74899292 113.95605469 C-3.94904938 114.77630127 -4.14910583 115.59654785 -4.35522461 116.44165039 C-4.52843231 117.15224609 -4.70164001 117.8628418 -4.88009644 118.5949707 C-5.74400749 122.10350135 -6.6238837 125.60808362 -7.50024414 129.11352539 C-16.41024414 129.11352539 -25.32024414 129.11352539 -34.50024414 129.11352539 C-32.25072372 116.74116307 -32.25072372 116.74116307 -30.99145508 111.86132812 C-30.71066101 110.76485458 -30.42986694 109.66838104 -30.14056396 108.53868103 C-29.84160217 107.38646561 -29.54264038 106.23425018 -29.23461914 105.04711914 C-28.76079803 103.19861107 -28.76079803 103.19861107 -28.27740479 101.3127594 C-27.27197475 97.39123894 -26.26171132 93.47099138 -25.25024414 89.55102539 C-20.91145509 72.72310101 -16.69261016 55.88771524 -12.83569336 38.94238281 C-11.2047751 31.78503022 -9.47055451 24.6552328 -7.68457031 17.53515625 C-7.16498404 15.46013038 -6.65193887 13.38354214 -6.13891602 11.30688477 C-5.80531026 9.97020167 -5.47134267 8.63360882 -5.13696289 7.29711914 C-4.84523193 6.12721436 -4.55350098 4.95730957 -4.25292969 3.75195312 C-3.22434555 0.14640374 -3.22434555 0.14640374 0 0 Z " fill="#0284EA" transform="translate(353.500244140625,405.886474609375)"/>
<path d="M0 0 C21.45 0 42.9 0 65 0 C62.72307692 13.66153846 62.72307692 13.66153846 61.4375 19.1875 C61.18871094 20.27417969 60.93992187 21.36085938 60.68359375 22.48046875 C60 25 60 25 59 26 C56.1883662 26.08861992 53.40141745 26.11522355 50.58984375 26.09765625 C49.74780899 26.0962413 48.90577423 26.09482635 48.03822327 26.09336853 C45.33794665 26.08775263 42.63775172 26.07519748 39.9375 26.0625 C38.11132932 26.05748705 36.28515734 26.05292379 34.45898438 26.04882812 C29.97262458 26.03777804 25.48632616 26.02050279 21 26 C20.90203125 26.6084375 20.8040625 27.216875 20.703125 27.84375 C19.23997362 36.42084429 17.13245841 44.47016637 15 53 C25.89 53 36.78 53 48 53 C47.030625 56.939375 46.06125 60.87875 45.0625 64.9375 C44.75836182 66.18136475 44.45422363 67.42522949 44.14086914 68.70678711 C43.89973389 69.6788208 43.65859863 70.65085449 43.41015625 71.65234375 C43.16402588 72.65257568 42.91789551 73.65280762 42.66430664 74.68334961 C42 77 42 77 41 78 C38.55169574 78.08843793 36.13179401 78.11528752 33.68359375 78.09765625 C32.95253922 78.0962413 32.22148468 78.09482635 31.46827698 78.09336853 C29.12464368 78.08775408 26.78110461 78.07519922 24.4375 78.0625 C22.85221492 78.05748686 21.26692834 78.05292363 19.68164062 78.04882812 C15.7877239 78.03777997 11.89387795 78.02050572 8 78 C7.9175 79.134375 7.835 80.26875 7.75 81.4375 C6.72301973 89.05427031 4.76032603 96.51861438 3 104 C15.21 104 27.42 104 40 104 C38 116 38 116 34 129 C12.55 129 -8.9 129 -31 129 C-24.15660281 99.91556196 -17.28601757 70.84451017 -10.13574219 41.83422852 C-6.70246114 27.9015373 -3.34899193 13.95413305 0 0 Z " fill="#0285EA" transform="translate(907,406)"/>
<path d="M0 0 C0.73210693 0.00531738 1.46421387 0.01063477 2.21850586 0.01611328 C11.96090865 0.18283045 21.49524948 1.62366985 30.875 4.25 C30.29140925 12.56616812 28.13700586 20.26459326 25.875 28.25 C25.01261719 28.0334375 24.15023437 27.816875 23.26171875 27.59375 C15.80553102 25.89307782 8.59300582 24.88879329 0.9375 24.75 C0.15785889 24.71970703 -0.62178223 24.68941406 -1.42504883 24.65820312 C-7.44872431 24.65306511 -11.45039893 26.48130297 -16.125 30.25 C-19.04313929 33.5329067 -20.35876725 35.97706704 -20.5625 40.3125 C-20.10457155 44.43385601 -19.81036527 46.14504641 -17.125 49.25 C-11.19961026 53.43843985 -4.66720008 56.6585894 1.78320312 59.94335938 C9.94396061 64.17459071 14.87041252 68.33474864 17.875 77.25 C19.71807017 88.7533 16.02660264 101.25766981 9.68359375 110.875 C2.79738776 119.91779318 -4.42424605 125.35403054 -15.125 129.25 C-16.61966797 129.81267578 -16.61966797 129.81267578 -18.14453125 130.38671875 C-23.96670293 131.97596875 -30.14198005 131.58728151 -36.125 131.5625 C-37.41833252 131.56048584 -38.71166504 131.55847168 -40.04418945 131.55639648 C-59.92995954 131.34752023 -59.92995954 131.34752023 -68.125 127.25 C-67.54140925 118.93383188 -65.38700586 111.23540674 -63.125 103.25 C-62.23683594 103.4665625 -61.34867188 103.683125 -60.43359375 103.90625 C-51.96728097 105.75158154 -43.79619063 106.59834325 -35.125 106.6875 C-33.67565063 106.72037109 -33.67565063 106.72037109 -32.19702148 106.75390625 C-26.01214873 106.73678401 -21.26409803 105.82380762 -16.125 102.25 C-12.90855086 98.8766509 -11.79016226 96.33895047 -11.875 91.75 C-12.5019498 88.24025296 -13.42132519 86.43846709 -16.1875 84.1875 C-20.29237082 81.50040554 -24.71981346 79.45220551 -29.125 77.3125 C-38.11510578 72.93706769 -45.0615457 68.49959915 -49.27734375 59.0390625 C-52.64951939 47.94351684 -49.32472498 36.18826376 -44.6171875 25.98046875 C-37.9238277 13.60553609 -27.52642176 5.96772943 -14.19628906 1.62109375 C-9.42944068 0.30642261 -4.92996126 -0.06572513 0 0 Z " fill="#0384EA" transform="translate(671.125,404.75)"/>
<path d="M0 0 C8.91 0 17.82 0 27 0 C24.52730913 12.83032605 21.74805024 25.49190502 18.50994873 38.14825439 C17.29635585 42.89291721 16.09891589 47.6416455 14.90234375 52.390625 C14.65993958 53.35195343 14.4175354 54.31328186 14.16778564 55.30374146 C11.22462815 67.02020242 8.46688586 78.78036201 5.72973633 90.54638672 C5.55171982 91.30783997 5.37370331 92.06929321 5.19029236 92.8538208 C4.85944503 94.26975207 4.53074577 95.68618766 4.2046051 97.10321045 C3.11222605 101.77554791 3.11222605 101.77554791 2 104 C14.54 104 27.08 104 40 104 C38.79814957 112.41295298 36.8435544 120.70400522 35 129 C13.22 129 -8.56 129 -31 129 C-26.41205661 107.20726891 -26.41205661 107.20726891 -23.8984375 97.15234375 C-23.62019638 96.02680588 -23.34195526 94.90126801 -23.05528259 93.74162292 C-22.46655906 91.36088221 -21.87647164 88.98047837 -21.2850647 86.60040283 C-19.72595915 80.32518728 -18.17720197 74.04742131 -16.62890625 67.76953125 C-16.31992905 66.51730774 -16.01095184 65.26508423 -15.69261169 63.97491455 C-12.41616118 50.67186329 -9.24484231 37.34435566 -6.10888672 24.00756836 C-5.91879532 23.20201004 -5.72870392 22.39645172 -5.53285217 21.56648254 C-5.18918381 20.10952476 -4.84704625 18.65220425 -4.50706482 17.19438171 C-3.14308177 11.41411278 -1.56608285 5.7423038 0 0 Z " fill="#0284EA" transform="translate(829,406)"/>
<path d="M0 0 C1.09441406 -0.02578125 2.18882812 -0.0515625 3.31640625 -0.078125 C6.81179239 0.28934989 8.67872313 1.09693244 11.4375 3.25 C11.75 5.9375 11.75 5.9375 11.4375 8.25 C10.2 8.641875 8.9625 9.03375 7.6875 9.4375 C5.93446976 10.032817 4.18472413 10.63785197 2.4375 11.25 C1.49777344 11.57871094 0.55804688 11.90742188 -0.41015625 12.24609375 C-17.46306761 18.73923128 -28.20365992 31.72841082 -39.31640625 45.53515625 C-42.44417179 49.31567286 -45.77523883 52.89480875 -49.09765625 56.50390625 C-51.48957297 59.16875166 -53.75504884 61.89831825 -56 64.6875 C-60.12706776 69.80418437 -64.5020701 74.62237556 -68.984375 79.42578125 C-71.60819641 82.30005834 -74.09308305 85.24317397 -76.5625 88.25 C-77.83560312 87.31558465 -79.105888 86.37732889 -80.375 85.4375 C-81.08269531 84.91542969 -81.79039062 84.39335937 -82.51953125 83.85546875 C-84.34781393 82.41871123 -85.96146688 80.93184237 -87.5625 79.25 C-83.76762077 70.9239217 -76.60005946 64.07587202 -70.70581055 57.14331055 C-66.25347704 51.90314405 -61.90148175 46.58430372 -57.5625 41.25 C-55.31462229 38.50085339 -53.06506203 35.75312248 -50.8125 33.0078125 C-49.30227243 31.15673496 -47.80236565 29.29719271 -46.3125 27.4296875 C-33.79379052 11.8247684 -20.94161678 0.29669351 0 0 Z " fill="#0087EC" transform="translate(227.5625,372.75)"/>
<path d="M0 0 C2.25716295 3.18658299 2.92603115 5.17640552 2.64453125 9.078125 C0.90758964 18.84678906 -1.4660607 30.90265161 -8.875 38 C-11.469819 39.5221576 -13.95067718 40.34401983 -16.875 41 C-17.65875 41.226875 -18.4425 41.45375 -19.25 41.6875 C-23.45011979 42.18751426 -27.65081043 42.07382079 -31.875 42 C-31.26677675 34.78391923 -29.77354734 28.05885304 -27.9375 21.0625 C-27.40520604 19.01232643 -26.87523206 16.96154902 -26.34765625 14.91015625 C-26.09000488 13.92418457 -25.83235352 12.93821289 -25.56689453 11.92236328 C-24.893827 9.07951982 -24.43934332 6.25714097 -23.99609375 3.37109375 C-23.18215533 -0.77168668 -23.18215533 -0.77168668 -20.68359375 -2.62890625 C-14.11678905 -3.49656473 -5.67468 -3.9328118 0 0 Z " fill="#FAFBFD" transform="translate(584.875,433)"/>
<path d="M0 0 C0.33 0 0.66 0 1 0 C0.67 16.5 0.34 33 0 50 C-6.93 50 -13.86 50 -21 50 C-19.78883473 46.36650418 -18.63349665 42.97879558 -17.13647461 39.49511719 C-16.77947983 38.66115417 -16.42248505 37.82719116 -16.05467224 36.96795654 C-15.67440384 36.08649963 -15.29413544 35.20504272 -14.90234375 34.296875 C-14.50801651 33.37787415 -14.11368927 32.45887329 -13.70741272 31.51202393 C-12.87727403 29.5784963 -12.04598835 27.64546076 -11.21362305 25.71289062 C-9.93625618 22.74711211 -8.66215294 19.77994885 -7.38867188 16.8125 C-6.58091687 14.93221102 -5.77298051 13.05199994 -4.96484375 11.171875 C-4.58255112 10.28232117 -4.20025848 9.39276733 -3.80638123 8.47625732 C-3.4525386 7.65490295 -3.09869598 6.83354858 -2.73413086 5.98730469 C-2.42261581 5.26371765 -2.11110077 4.54013062 -1.79014587 3.7946167 C-1.2265842 2.51462875 -0.62545518 1.25091036 0 0 Z " fill="#F7F9FC" transform="translate(474,440)"/>
<path d="M0 0 C10.56 0 21.12 0 32 0 C32 42.57 32 85.14 32 129 C31.67 129 31.34 129 31 129 C30.82694425 117.20842093 30.66060538 105.41675518 30.5 93.625 C30.48812275 92.7532526 30.4762455 91.8815052 30.46400833 90.98334122 C30.06206655 61.32031216 29.86021776 31.66609262 30 2 C25.76376458 2.09346313 21.52809149 2.19953913 17.29248047 2.31738281 C15.8511626 2.35569674 14.40974832 2.39054543 12.96826172 2.421875 C10.89776114 2.46747446 8.82792567 2.52547444 6.7578125 2.5859375 C5.5114502 2.6173584 4.26508789 2.6487793 2.98095703 2.68115234 C-0.11541776 2.69682309 -0.11541776 2.69682309 -2 5 C-1.125 1.125 -1.125 1.125 0 0 Z " fill="#0C69DE" transform="translate(467,406)"/>
<path d="M0 0 C21.45 0 42.9 0 65 0 C64.67 2.31 64.34 4.62 64 7 C63.67 7 63.34 7 63 7 C63 5.35 63 3.7 63 2 C42.54 2 22.08 2 1 2 C0.67 4.64 0.34 7.28 0 10 C-0.66 10.99 -1.32 11.98 -2 13 C-1.85769192 11.58297487 -1.71099254 10.1663904 -1.5625 8.75 C-1.48128906 7.96109375 -1.40007813 7.1721875 -1.31640625 6.359375 C-1 4 -1 4 0 0 Z " fill="#0C77E2" transform="translate(907,406)"/>
<path d="M0 0 C-2.99090155 1.99393437 -4.18037468 2.35057073 -7.61328125 2.78125 C-8.5252124 2.90008545 -9.43714355 3.0189209 -10.37670898 3.14135742 C-11.82992554 3.3188855 -11.82992554 3.3188855 -13.3125 3.5 C-15.3099601 3.75600951 -17.30735606 4.01251989 -19.3046875 4.26953125 C-20.27889648 4.39279785 -21.25310547 4.51606445 -22.25683594 4.64306641 C-26.85859802 5.24183609 -31.44199458 5.95494985 -36.02734375 6.66796875 C-39.37107079 7.0414468 -42.63823683 7.05469702 -46 7 C-46 6.67 -46 6.34 -46 6 C-44.02 5.67 -42.04 5.34 -40 5 C-45.61 4.67 -51.22 4.34 -57 4 C-57 3.67 -57 3.34 -57 3 C-50.16834671 2.56927068 -43.33645767 2.14244021 -36.50439453 1.71826172 C-34.18239891 1.57364251 -31.86045777 1.42814567 -29.53857422 1.28173828 C-26.1925239 1.07090699 -22.84628744 0.86327946 -19.5 0.65625 C-18.4694751 0.59062866 -17.4389502 0.52500732 -16.37719727 0.45739746 C-10.90509572 0.12216435 -5.48231733 -0.06852897 0 0 Z " fill="#0C1D94" transform="translate(937,563)"/>
<path d="M0 0 C8.91 0 17.82 0 27 0 C26.67 2.31 26.34 4.62 26 7 C25.67 7 25.34 7 25 7 C25 5.35 25 3.7 25 2 C17.08 2 9.16 2 1 2 C0.67 2.99 0.34 3.98 0 5 C0 3.35 0 1.7 0 0 Z " fill="#0D75E1" transform="translate(783,406)"/>
<path d="M0 0 C1.46146512 0.04519995 2.92306466 0.08625498 4.38476562 0.12304688 C7.94682703 0.22168001 11.50380013 0.37663807 15.0625 0.5625 C14.0725 2.2125 13.0825 3.8625 12.0625 5.5625 C11.5675 4.5725 11.5675 4.5725 11.0625 3.5625 C5.83193929 2.29677137 0.42215928 2.16945982 -4.9375 2 C-5.8140625 1.93748047 -6.690625 1.87496094 -7.59375 1.81054688 C-12.7255093 1.67277106 -12.7255093 1.67277106 -16.8984375 4.38330078 C-18.40217324 6.38431064 -19.72299315 8.37570883 -20.9375 10.5625 C-21.5975 10.2325 -22.2575 9.9025 -22.9375 9.5625 C-17.7159721 -0.91863081 -10.52758227 -0.56633097 0 0 Z " fill="#1575DB" transform="translate(421.9375,405.4375)"/>
<path d="M0 0 C8.58 0 17.16 0 26 0 C25.67 1.65 25.34 3.3 25 5 C24.67 4.01 24.34 3.02 24 2 C16.08 2 8.16 2 0 2 C0 1.34 0 0.68 0 0 Z " fill="#0C77E2" transform="translate(351,406)"/>
<path d="M0 0 C-3.21123369 2.14082246 -4.78275686 2.41386588 -8.54296875 2.8515625 C-10.15268555 3.04492188 -10.15268555 3.04492188 -11.79492188 3.2421875 C-12.91447266 3.36851562 -14.03402344 3.49484375 -15.1875 3.625 C-16.31865234 3.7590625 -17.44980469 3.893125 -18.61523438 4.03125 C-21.40939511 4.36136182 -24.20421689 4.68397423 -27 5 C-26.67 3.68 -26.34 2.36 -26 1 C-23.16681141 0.83049299 -20.33349012 0.66432466 -17.5 0.5 C-16.70851563 0.45230469 -15.91703125 0.40460937 -15.1015625 0.35546875 C-10.057819 0.06607363 -5.05202732 -0.04634887 0 0 Z " fill="#393F94" transform="translate(937,563)"/>
<path d="M0 0 C0.99 0.66 1.98 1.32 3 2 C2.72285156 2.86882812 2.44570313 3.73765625 2.16015625 4.6328125 C1.79792969 5.78523438 1.43570312 6.93765625 1.0625 8.125 C0.70285156 9.26195312 0.34320313 10.39890625 -0.02734375 11.5703125 C-1.05619161 14.94645789 -1.05619161 14.94645789 -1.53125 18.28125 C-2.05086099 21.29499377 -2.99619447 22.73482854 -5 25 C-4.38580826 16.40131562 -2.19092979 8.30515248 0 0 Z " fill="#177BE3" transform="translate(329,492)"/>
<path d="M0 0 C1.21042969 0.01675781 2.42085937 0.03351562 3.66796875 0.05078125 C5.47201172 0.05658203 5.47201172 0.05658203 7.3125 0.0625 C10.80240626 0.3587765 13.59821849 1.11126009 16.85546875 2.36328125 C16.85546875 2.69328125 16.85546875 3.02328125 16.85546875 3.36328125 C9.26546875 3.36328125 1.67546875 3.36328125 -6.14453125 3.36328125 C-3.14453125 0.36328125 -3.14453125 0.36328125 0 0 Z " fill="#1D4CAA" transform="translate(655.14453125,574.63671875)"/>
<path d="M0 0 C12.66970387 -0.3690205 12.66970387 -0.3690205 18 2 C18 2.33 18 2.66 18 3 C11.73 3 5.46 3 -1 3 C-0.67 2.01 -0.34 1.02 0 0 Z " fill="#1D4AA9" transform="translate(676,574)"/>
<path d="M0 0 C0.33 0.66 0.66 1.32 1 2 C3.64 2 6.28 2 9 2 C9 2.33 9 2.66 9 3 C2.93184478 4.22899346 -2.79895188 5.27560214 -9 5 C-9 4.67 -9 4.34 -9 4 C-7.6078125 3.566875 -7.6078125 3.566875 -6.1875 3.125 C-2.90208333 2.1125 -2.90208333 2.1125 0 0 Z " fill="#062392" transform="translate(881,568)"/>
<path d="M0 0 C1.3340394 4.00211819 0.40012984 6.07963644 -1 10 C-2.625 11.9375 -2.625 11.9375 -4 13 C-3 3 -3 3 0 0 Z " fill="#147CE4" transform="translate(718,431)"/>
<path d="M0 0 C4.82675589 2.41337795 7.69984002 5.86062408 11 10 C10.67 10.66 10.34 11.32 10 12 C9.44570313 11.36191406 8.89140625 10.72382813 8.3203125 10.06640625 C7.23363281 8.82697266 7.23363281 8.82697266 6.125 7.5625 C5.40570313 6.73878906 4.68640625 5.91507812 3.9453125 5.06640625 C2.16761255 2.94017845 2.16761255 2.94017845 0 2 C0 1.34 0 0.68 0 0 Z " fill="#222788" transform="translate(284,373)"/>
<path d="M0 0 C0.33 0 0.66 0 1 0 C1 4.62 1 9.24 1 14 C0.67 14 0.34 14 0 14 C-0.33 11.69 -0.66 9.38 -1 7 C-1.99 7.495 -1.99 7.495 -3 8 C-1.125 2.25 -1.125 2.25 0 0 Z " fill="#DCE6F5" transform="translate(474,440)"/>
</svg>
